<?xml version="1.0" encoding="iso-8859-1"?>
<!-- Generator: Adobe Illustrator 19.0.0, SVG Export Plug-In . SVG Version: 6.00 Build 0)  -->
<svg version="1.1" id="Layer_1" xmlns="http://www.w3.org/2000/svg" xmlns:xlink="http://www.w3.org/1999/xlink" x="0px" y="0px"
	 viewBox="0 0 512 512" style="enable-background:new 0 0 512 512;" xml:space="preserve">
<g>
	<g>
		<path d="M460.464,0H335.308c-6.283,0-11.042,5.54-11.042,11.823v170.221H187.733V11.823C187.733,5.54,182.303,0,176.019,0H50.864
			c-6.283,0-11.042,5.54-11.042,11.823v489.245c0,6.283,4.758,10.932,11.042,10.932h125.156c6.283,0,11.714-4.649,11.714-10.932
			V329.956h136.533v171.112c0,6.283,4.758,10.932,11.042,10.932h125.156c6.283,0,11.714-4.649,11.714-10.932V11.824
			C472.178,5.54,466.747,0,460.464,0z M449.422,489.244h-102.4V319.023c0-6.283-5.431-11.823-11.714-11.823H176.019
			c-6.283,0-11.042,5.54-11.042,11.823v170.221h-102.4V22.756h102.4v171.112c0,6.283,4.758,10.932,11.042,10.932h159.289
			c6.283,0,11.714-4.649,11.714-10.932V22.756h102.4V489.244z"/>
	</g>
</g>
<g>
</g>
<g>
</g>
<g>
</g>
<g>
</g>
<g>
</g>
<g>
</g>
<g>
</g>
<g>
</g>
<g>
</g>
<g>
</g>
<g>
</g>
<g>
</g>
<g>
</g>
<g>
</g>
<g>
</g>
</svg>
